<mxfile host="Electron" agent="Mozilla/5.0 (Windows NT 10.0; Win64; x64) AppleWebKit/537.36 (KHTML, like Gecko) draw.io/28.2.7 Chrome/138.0.7204.251 Electron/37.7.1 Safari/537.36" version="28.2.7">
  <diagram name="PÃ¡gina-1" id="NbJFK3FxdfYIk32a6cbe">
    <mxGraphModel dx="1284" dy="1236" grid="1" gridSize="10" guides="1" tooltips="1" connect="1" arrows="1" fold="1" page="1" pageScale="1" pageWidth="827" pageHeight="1169" math="0" shadow="0">
      <root>
        <mxCell id="0" />
        <mxCell id="1" parent="0" />
        <mxCell id="TRCqDCubxSwPS7PvMrXK-1" value="Planes" style="rounded=0;whiteSpace=wrap;html=1;" parent="1" vertex="1">
          <mxGeometry x="113" y="390" width="120" height="60" as="geometry" />
        </mxCell>
        <mxCell id="TRCqDCubxSwPS7PvMrXK-2" value="CategoriasGasto" style="rounded=0;whiteSpace=wrap;html=1;" parent="1" vertex="1">
          <mxGeometry x="609" y="210" width="120" height="60" as="geometry" />
        </mxCell>
        <mxCell id="TRCqDCubxSwPS7PvMrXK-3" value="Usuarios" style="rounded=0;whiteSpace=wrap;html=1;" parent="1" vertex="1">
          <mxGeometry x="400" y="210" width="120" height="60" as="geometry" />
        </mxCell>
        <mxCell id="TRCqDCubxSwPS7PvMrXK-4" value="Tareas" style="rounded=0;whiteSpace=wrap;html=1;" parent="1" vertex="1">
          <mxGeometry x="280" y="555" width="120" height="60" as="geometry" />
        </mxCell>
        <mxCell id="TRCqDCubxSwPS7PvMrXK-6" value="Gastos" style="rounded=0;whiteSpace=wrap;html=1;" parent="1" vertex="1">
          <mxGeometry x="400" y="360" width="120" height="60" as="geometry" />
        </mxCell>
        <mxCell id="TRCqDCubxSwPS7PvMrXK-8" value="Grupos" style="rounded=0;whiteSpace=wrap;html=1;" parent="1" vertex="1">
          <mxGeometry x="113" y="210" width="120" height="60" as="geometry" />
        </mxCell>
        <mxCell id="TRCqDCubxSwPS7PvMrXK-16" value="grupos_usuarios" style="rhombus;whiteSpace=wrap;html=1;" parent="1" vertex="1">
          <mxGeometry x="293" y="215" width="54" height="50" as="geometry" />
        </mxCell>
        <mxCell id="TRCqDCubxSwPS7PvMrXK-17" value="" style="endArrow=none;html=1;rounded=0;exitX=0;exitY=0.5;exitDx=0;exitDy=0;entryX=1;entryY=0.5;entryDx=0;entryDy=0;" parent="1" source="TRCqDCubxSwPS7PvMrXK-3" target="TRCqDCubxSwPS7PvMrXK-16" edge="1">
          <mxGeometry width="50" height="50" relative="1" as="geometry">
            <mxPoint x="298" y="430" as="sourcePoint" />
            <mxPoint x="348" y="380" as="targetPoint" />
          </mxGeometry>
        </mxCell>
        <mxCell id="TRCqDCubxSwPS7PvMrXK-18" value="" style="endArrow=none;html=1;rounded=0;exitX=0;exitY=0.5;exitDx=0;exitDy=0;entryX=1;entryY=0.5;entryDx=0;entryDy=0;" parent="1" source="TRCqDCubxSwPS7PvMrXK-16" target="TRCqDCubxSwPS7PvMrXK-8" edge="1">
          <mxGeometry width="50" height="50" relative="1" as="geometry">
            <mxPoint x="298" y="430" as="sourcePoint" />
            <mxPoint x="348" y="380" as="targetPoint" />
          </mxGeometry>
        </mxCell>
        <mxCell id="TRCqDCubxSwPS7PvMrXK-22" value="categoria_gasto" style="rhombus;whiteSpace=wrap;html=1;" parent="1" vertex="1">
          <mxGeometry x="639" y="360" width="60" height="60" as="geometry" />
        </mxCell>
        <mxCell id="TRCqDCubxSwPS7PvMrXK-23" value="" style="endArrow=none;html=1;rounded=0;exitX=1;exitY=0.5;exitDx=0;exitDy=0;entryX=0;entryY=0.5;entryDx=0;entryDy=0;" parent="1" source="TRCqDCubxSwPS7PvMrXK-6" target="TRCqDCubxSwPS7PvMrXK-22" edge="1">
          <mxGeometry width="50" height="50" relative="1" as="geometry">
            <mxPoint x="478" y="480" as="sourcePoint" />
            <mxPoint x="528" y="430" as="targetPoint" />
          </mxGeometry>
        </mxCell>
        <mxCell id="TRCqDCubxSwPS7PvMrXK-24" value="" style="endArrow=none;html=1;rounded=0;exitX=0.5;exitY=0;exitDx=0;exitDy=0;entryX=0.5;entryY=1;entryDx=0;entryDy=0;" parent="1" source="TRCqDCubxSwPS7PvMrXK-22" target="TRCqDCubxSwPS7PvMrXK-2" edge="1">
          <mxGeometry width="50" height="50" relative="1" as="geometry">
            <mxPoint x="478" y="480" as="sourcePoint" />
            <mxPoint x="528" y="430" as="targetPoint" />
          </mxGeometry>
        </mxCell>
        <mxCell id="TRCqDCubxSwPS7PvMrXK-36" value="usuario_gasto" style="rhombus;whiteSpace=wrap;html=1;" parent="1" vertex="1">
          <mxGeometry x="433" y="295" width="54" height="50" as="geometry" />
        </mxCell>
        <mxCell id="TRCqDCubxSwPS7PvMrXK-37" value="" style="endArrow=none;html=1;rounded=0;exitX=0.5;exitY=0;exitDx=0;exitDy=0;entryX=0.5;entryY=1;entryDx=0;entryDy=0;" parent="1" source="TRCqDCubxSwPS7PvMrXK-6" target="TRCqDCubxSwPS7PvMrXK-36" edge="1">
          <mxGeometry width="50" height="50" relative="1" as="geometry">
            <mxPoint x="371" y="520" as="sourcePoint" />
            <mxPoint x="521" y="530" as="targetPoint" />
          </mxGeometry>
        </mxCell>
        <mxCell id="TRCqDCubxSwPS7PvMrXK-38" value="" style="endArrow=none;html=1;rounded=0;entryX=0.5;entryY=1;entryDx=0;entryDy=0;exitX=0.5;exitY=0;exitDx=0;exitDy=0;" parent="1" source="TRCqDCubxSwPS7PvMrXK-36" target="TRCqDCubxSwPS7PvMrXK-3" edge="1">
          <mxGeometry width="50" height="50" relative="1" as="geometry">
            <mxPoint x="469" y="450" as="sourcePoint" />
            <mxPoint x="371" y="420" as="targetPoint" />
          </mxGeometry>
        </mxCell>
        <mxCell id="TRCqDCubxSwPS7PvMrXK-42" value="&lt;u&gt;id&lt;/u&gt;&lt;div&gt;Nombre&lt;/div&gt;&lt;div&gt;FechaInicio&lt;/div&gt;&lt;div&gt;FechaFin&lt;/div&gt;&lt;div&gt;Descripcion&lt;/div&gt;" style="ellipse;whiteSpace=wrap;html=1;" parent="1" vertex="1">
          <mxGeometry x="43" y="370" width="70" height="80" as="geometry" />
        </mxCell>
        <mxCell id="TRCqDCubxSwPS7PvMrXK-45" value="&lt;u&gt;id&lt;/u&gt;&lt;div&gt;Monto&lt;/div&gt;&lt;div&gt;Descripcion&lt;/div&gt;&lt;div&gt;FechaHora&lt;/div&gt;" style="ellipse;whiteSpace=wrap;html=1;" parent="1" vertex="1">
          <mxGeometry x="340" y="300" width="70" height="80" as="geometry" />
        </mxCell>
        <mxCell id="TRCqDCubxSwPS7PvMrXK-46" value="&lt;u&gt;id&lt;/u&gt;&lt;div&gt;Tipo&lt;/div&gt;&lt;div&gt;Descripcion&lt;/div&gt;" style="ellipse;whiteSpace=wrap;html=1;" parent="1" vertex="1">
          <mxGeometry x="729" y="200" width="70" height="80" as="geometry" />
        </mxCell>
        <mxCell id="TRCqDCubxSwPS7PvMrXK-47" value="&lt;u&gt;id&lt;/u&gt;&lt;div&gt;Nombre&lt;/div&gt;&lt;div&gt;FechaHora&lt;/div&gt;&lt;div&gt;Duracion&lt;/div&gt;&lt;div&gt;Estado&lt;/div&gt;" style="ellipse;whiteSpace=wrap;html=1;" parent="1" vertex="1">
          <mxGeometry x="405" y="530" width="70" height="80" as="geometry" />
        </mxCell>
        <mxCell id="TRCqDCubxSwPS7PvMrXK-49" value="&lt;u&gt;id&lt;/u&gt;&lt;div&gt;Nombre&lt;/div&gt;&lt;div&gt;&lt;br&gt;&lt;/div&gt;" style="ellipse;whiteSpace=wrap;html=1;" parent="1" vertex="1">
          <mxGeometry x="29" y="205" width="89" height="70" as="geometry" />
        </mxCell>
        <mxCell id="TRCqDCubxSwPS7PvMrXK-56" value="&lt;u&gt;id&lt;/u&gt;&lt;div&gt;Nombre&lt;/div&gt;&lt;div&gt;Mail&lt;/div&gt;&lt;div&gt;Contrasena&lt;/div&gt;" style="ellipse;whiteSpace=wrap;html=1;" parent="1" vertex="1">
          <mxGeometry x="495" y="160" width="74" height="90" as="geometry" />
        </mxCell>
        <mxCell id="TRCqDCubxSwPS7PvMrXK-61" value="1..n" style="text;html=1;align=center;verticalAlign=middle;resizable=0;points=[];autosize=1;strokeColor=none;fillColor=none;" parent="1" vertex="1">
          <mxGeometry x="233" y="215" width="40" height="30" as="geometry" />
        </mxCell>
        <mxCell id="TRCqDCubxSwPS7PvMrXK-70" value="1..m" style="text;html=1;align=center;verticalAlign=middle;resizable=0;points=[];autosize=1;strokeColor=none;fillColor=none;" parent="1" vertex="1">
          <mxGeometry x="358" y="215" width="50" height="30" as="geometry" />
        </mxCell>
        <mxCell id="TRCqDCubxSwPS7PvMrXK-72" value="1..1" style="text;html=1;align=center;verticalAlign=middle;resizable=0;points=[];autosize=1;strokeColor=none;fillColor=none;" parent="1" vertex="1">
          <mxGeometry x="453" y="265" width="40" height="30" as="geometry" />
        </mxCell>
        <mxCell id="TRCqDCubxSwPS7PvMrXK-73" value="1..n" style="text;html=1;align=center;verticalAlign=middle;resizable=0;points=[];autosize=1;strokeColor=none;fillColor=none;" parent="1" vertex="1">
          <mxGeometry x="465" y="330" width="40" height="30" as="geometry" />
        </mxCell>
        <mxCell id="TRCqDCubxSwPS7PvMrXK-74" value="1..1" style="text;html=1;align=center;verticalAlign=middle;resizable=0;points=[];autosize=1;strokeColor=none;fillColor=none;" parent="1" vertex="1">
          <mxGeometry x="668" y="265" width="40" height="30" as="geometry" />
        </mxCell>
        <mxCell id="9G8OJoU_HmVy6I59JmGY-2" value="1..n" style="text;html=1;align=center;verticalAlign=middle;resizable=0;points=[];autosize=1;strokeColor=none;fillColor=none;" vertex="1" parent="1">
          <mxGeometry x="528" y="360" width="40" height="30" as="geometry" />
        </mxCell>
        <mxCell id="9G8OJoU_HmVy6I59JmGY-7" value="planes_grupo" style="rhombus;whiteSpace=wrap;html=1;" vertex="1" parent="1">
          <mxGeometry x="146" y="310" width="54" height="50" as="geometry" />
        </mxCell>
        <mxCell id="9G8OJoU_HmVy6I59JmGY-8" value="" style="endArrow=none;html=1;rounded=0;exitX=0.5;exitY=0;exitDx=0;exitDy=0;entryX=0.5;entryY=1;entryDx=0;entryDy=0;" edge="1" parent="1" target="9G8OJoU_HmVy6I59JmGY-7" source="TRCqDCubxSwPS7PvMrXK-1">
          <mxGeometry width="50" height="50" relative="1" as="geometry">
            <mxPoint x="164" y="402.5" as="sourcePoint" />
            <mxPoint x="217" y="402.5" as="targetPoint" />
          </mxGeometry>
        </mxCell>
        <mxCell id="9G8OJoU_HmVy6I59JmGY-9" value="" style="endArrow=none;html=1;rounded=0;exitX=0.5;exitY=0;exitDx=0;exitDy=0;entryX=0.5;entryY=1;entryDx=0;entryDy=0;" edge="1" parent="1" source="9G8OJoU_HmVy6I59JmGY-7" target="TRCqDCubxSwPS7PvMrXK-8">
          <mxGeometry width="50" height="50" relative="1" as="geometry">
            <mxPoint x="167" y="452.5" as="sourcePoint" />
            <mxPoint x="141" y="287.5" as="targetPoint" />
          </mxGeometry>
        </mxCell>
        <mxCell id="9G8OJoU_HmVy6I59JmGY-10" value="1..1" style="text;html=1;align=center;verticalAlign=middle;resizable=0;points=[];autosize=1;strokeColor=none;fillColor=none;" vertex="1" parent="1">
          <mxGeometry x="169" y="265" width="40" height="30" as="geometry" />
        </mxCell>
        <mxCell id="9G8OJoU_HmVy6I59JmGY-11" value="1..m" style="text;html=1;align=center;verticalAlign=middle;resizable=0;points=[];autosize=1;strokeColor=none;fillColor=none;" vertex="1" parent="1">
          <mxGeometry x="164" y="360" width="50" height="30" as="geometry" />
        </mxCell>
        <mxCell id="9G8OJoU_HmVy6I59JmGY-12" value="gastos_tarea" style="rhombus;whiteSpace=wrap;html=1;" vertex="1" parent="1">
          <mxGeometry x="313" y="470" width="54" height="50" as="geometry" />
        </mxCell>
        <mxCell id="9G8OJoU_HmVy6I59JmGY-13" value="" style="endArrow=none;html=1;rounded=0;exitX=0.5;exitY=0;exitDx=0;exitDy=0;entryX=0.5;entryY=1;entryDx=0;entryDy=0;" edge="1" parent="1" target="9G8OJoU_HmVy6I59JmGY-12" source="TRCqDCubxSwPS7PvMrXK-4">
          <mxGeometry width="50" height="50" relative="1" as="geometry">
            <mxPoint x="355" y="505" as="sourcePoint" />
            <mxPoint x="416" y="675" as="targetPoint" />
          </mxGeometry>
        </mxCell>
        <mxCell id="9G8OJoU_HmVy6I59JmGY-14" value="1..m" style="text;html=1;align=center;verticalAlign=middle;resizable=0;points=[];autosize=1;strokeColor=none;fillColor=none;" vertex="1" parent="1">
          <mxGeometry x="448" y="420" width="50" height="30" as="geometry" />
        </mxCell>
        <mxCell id="9G8OJoU_HmVy6I59JmGY-15" value="1..1" style="text;html=1;align=center;verticalAlign=middle;resizable=0;points=[];autosize=1;strokeColor=none;fillColor=none;" vertex="1" parent="1">
          <mxGeometry x="340" y="530" width="40" height="30" as="geometry" />
        </mxCell>
        <mxCell id="9G8OJoU_HmVy6I59JmGY-16" value="" style="endArrow=none;html=1;rounded=0;exitX=0.5;exitY=0;exitDx=0;exitDy=0;entryX=0.5;entryY=1;entryDx=0;entryDy=0;" edge="1" parent="1" source="9G8OJoU_HmVy6I59JmGY-12" target="TRCqDCubxSwPS7PvMrXK-6">
          <mxGeometry width="50" height="50" relative="1" as="geometry">
            <mxPoint x="409" y="475" as="sourcePoint" />
            <mxPoint x="409" y="460" as="targetPoint" />
            <Array as="points">
              <mxPoint x="340" y="440" />
              <mxPoint x="460" y="440" />
            </Array>
          </mxGeometry>
        </mxCell>
        <mxCell id="9G8OJoU_HmVy6I59JmGY-17" value="tareas_plan" style="rhombus;whiteSpace=wrap;html=1;" vertex="1" parent="1">
          <mxGeometry x="146" y="560" width="54" height="50" as="geometry" />
        </mxCell>
        <mxCell id="9G8OJoU_HmVy6I59JmGY-18" value="" style="endArrow=none;html=1;rounded=0;exitX=0;exitY=0.5;exitDx=0;exitDy=0;entryX=1;entryY=0.5;entryDx=0;entryDy=0;" edge="1" parent="1" target="9G8OJoU_HmVy6I59JmGY-17" source="TRCqDCubxSwPS7PvMrXK-4">
          <mxGeometry width="50" height="50" relative="1" as="geometry">
            <mxPoint x="191" y="595" as="sourcePoint" />
            <mxPoint x="267" y="715" as="targetPoint" />
          </mxGeometry>
        </mxCell>
        <mxCell id="9G8OJoU_HmVy6I59JmGY-19" value="1..n" style="text;html=1;align=center;verticalAlign=middle;resizable=0;points=[];autosize=1;strokeColor=none;fillColor=none;" vertex="1" parent="1">
          <mxGeometry x="240" y="580" width="40" height="30" as="geometry" />
        </mxCell>
        <mxCell id="9G8OJoU_HmVy6I59JmGY-20" value="" style="endArrow=none;html=1;rounded=0;exitX=0.5;exitY=0;exitDx=0;exitDy=0;entryX=0.5;entryY=1;entryDx=0;entryDy=0;" edge="1" parent="1" source="9G8OJoU_HmVy6I59JmGY-17" target="TRCqDCubxSwPS7PvMrXK-1">
          <mxGeometry width="50" height="50" relative="1" as="geometry">
            <mxPoint x="260" y="515" as="sourcePoint" />
            <mxPoint x="311" y="460" as="targetPoint" />
            <Array as="points" />
          </mxGeometry>
        </mxCell>
        <mxCell id="9G8OJoU_HmVy6I59JmGY-21" value="1..m" style="text;html=1;align=center;verticalAlign=middle;resizable=0;points=[];autosize=1;strokeColor=none;fillColor=none;" vertex="1" parent="1">
          <mxGeometry x="448" y="420" width="50" height="30" as="geometry" />
        </mxCell>
        <mxCell id="9G8OJoU_HmVy6I59JmGY-22" value="1..1" style="text;html=1;align=center;verticalAlign=middle;resizable=0;points=[];autosize=1;strokeColor=none;fillColor=none;" vertex="1" parent="1">
          <mxGeometry x="169" y="450" width="40" height="30" as="geometry" />
        </mxCell>
        <mxCell id="9G8OJoU_HmVy6I59JmGY-23" value="" style="endArrow=classic;html=1;rounded=0;fillColor=#a20025;strokeColor=#FF0000;" edge="1" parent="1">
          <mxGeometry width="50" height="50" relative="1" as="geometry">
            <mxPoint x="589" y="360" as="sourcePoint" />
            <mxPoint x="639" y="320" as="targetPoint" />
          </mxGeometry>
        </mxCell>
        <mxCell id="9G8OJoU_HmVy6I59JmGY-25" value="" style="endArrow=classic;html=1;rounded=0;fillColor=#a20025;strokeColor=#FF0000;" edge="1" parent="1">
          <mxGeometry width="50" height="50" relative="1" as="geometry">
            <mxPoint x="519" y="340" as="sourcePoint" />
            <mxPoint x="519" y="290" as="targetPoint" />
          </mxGeometry>
        </mxCell>
        <mxCell id="9G8OJoU_HmVy6I59JmGY-26" value="" style="endArrow=classic;html=1;rounded=0;fillColor=#a20025;strokeColor=#FF0000;" edge="1" parent="1">
          <mxGeometry width="50" height="50" relative="1" as="geometry">
            <mxPoint x="389" y="520" as="sourcePoint" />
            <mxPoint x="429" y="460" as="targetPoint" />
          </mxGeometry>
        </mxCell>
        <mxCell id="9G8OJoU_HmVy6I59JmGY-27" value="" style="endArrow=classic;startArrow=classic;html=1;rounded=0;fillColor=#a20025;strokeColor=#FF0000;" edge="1" parent="1">
          <mxGeometry width="50" height="50" relative="1" as="geometry">
            <mxPoint x="287" y="200" as="sourcePoint" />
            <mxPoint x="353" y="200" as="targetPoint" />
          </mxGeometry>
        </mxCell>
        <mxCell id="9G8OJoU_HmVy6I59JmGY-28" value="" style="endArrow=classic;html=1;rounded=0;fillColor=#a20025;strokeColor=#FF0000;" edge="1" parent="1">
          <mxGeometry width="50" height="50" relative="1" as="geometry">
            <mxPoint x="229" y="295" as="sourcePoint" />
            <mxPoint x="229" y="365" as="targetPoint" />
          </mxGeometry>
        </mxCell>
        <mxCell id="9G8OJoU_HmVy6I59JmGY-29" value="" style="endArrow=classic;html=1;rounded=0;fillColor=#a20025;strokeColor=#FF0000;" edge="1" parent="1">
          <mxGeometry width="50" height="50" relative="1" as="geometry">
            <mxPoint x="200" y="490" as="sourcePoint" />
            <mxPoint x="250" y="550" as="targetPoint" />
          </mxGeometry>
        </mxCell>
      </root>
    </mxGraphModel>
  </diagram>
</mxfile>
